#!OML:ASF E:/inclinewalkrobotboard/Project1/Captureday1/Session1/subject1.ASF
:FULLY-SPECIFIED
:DEGREES
13
root 0 0 0 2.047923451496706 -3.605624464968379 2.7535356834796105
lowerback 12.256527213024274 0.7508066161302999 -0.7845958377590582
upperback -4.0792599936247855 0.8752690123564056 -0.6813887643237532
thorax -11.270549511365742 0.4039460586763111 -0.5066103814733016
lowerneck -7.130049064121602 1.4575174725100097 4.337779139556078
upperneck 19.250301823966335 2.9640100373159948 -8.324113004183417
head 7.207796903584426 1.0227381627787424 -3.2120610591910213
rclavicle -1.0097424008778567E-15 -1.7092434758606791E-15
rhumerus 16.736857652256475 12.352073545387947 -50.70141711206202
rradius 68.34335021582035
rwrist 24.507218675411895
rhand -32.947633623638445 -49.24384652529597
rfingers 7.125019999999964
rthumb -6.2121569047685465 -79.33755204459956
lclavicle 5.668341361019344E-16 1.9486429781692032E-16
lhumerus 17.968443644570634 -13.75911698779509 49.36571894326667
lradius 67.37634623201535
lwrist -18.24451937990771
lhand -44.032952278260076 -60.69574807773162
lfingers 7.1250199999999575
lthumb -16.863691639917125 -31.262987560638297
rfemur -33.868092902727085 -1.1495138274491548 15.926113497748842
rtibia 51.25045141841945
rfoot -20.002778314990053 -16.126471467515668
rtoes -12.78466792818513
lfemur -21.282988305494754 4.242541576082431 -15.257177556465546
ltibia 60.69158197856045
lfoot -16.824981364089176 -3.427136145140513
ltoes -15.799913513022407
14
root 0 0 0 2.244899688174231 -3.7818157276230817 2.49029326383642
lowerback 12.205459136779268 0.8586540758621133 -0.5009747187746828
upperback -4.114496566077127 1.0546015630302614 -0.6810904478264198
thorax -11.26380171174502 0.4835633717576661 -0.6928750148526586
lowerneck -7.080938080235211 1.4335184431017207 4.351744547777648
upperneck 19.15249973114981 2.9234662624976018 -8.295814508644279
head 7.166601124635639 1.0098899113187532 -3.207074883324516
rclavicle -1.2392242406229726E-15 -1.5866605084608731E-15
rhumerus 17.07978485631127 12.793634931858842 -50.938327564392566
rradius 68.61759008076001
rwrist 24.235966019767588
rhand -32.967654549095414 -49.259693359248
rfingers 7.125019999999964
rthumb -6.232979918862625 -79.34207180080594
lclavicle 5.202532215420988E-16 2.8748648113335884E-16
lhumerus 18.011520091227574 -13.844515226087342 49.3894824184673
lradius 67.43267064916768
lwrist -18.200184342609965
lhand -44.03579245336984 -60.63732174322701
lfingers 7.1250199999999575
lthumb -16.865779835438598 -31.204894861124064
rfemur -31.609339584505655 -0.6027824340115466 17.015613808252937
rtibia 47.96479148904456
rfoot -23.194222714240375 -16.586539196684917
rtoes -14.35352217015214
lfemur -23.01988707533618 3.8394893322975117 -14.902304669487727
ltibia 57.212633186581044
lfoot -19.027613912865228 -1.3890585748600321
ltoes -15.943325081206154
15
root 0 0 0 2.4504349066644653 -3.9891170595628838 2.2357777380484367
lowerback 12.130082314968595 0.984174320959796 -0.22348138961203556
upperback -4.150727867272894 1.2549166104816605 -0.6932326078579153
thorax -11.242677395132239 0.5737886376710942 -0.8906055302348539
lowerneck -7.027206936558005 1.3977302715275843 4.350095103376905
upperneck 19.05761982917552 2.864747087321307 -8.237636712475881
head 7.126110776205778 0.9902405911422866 -3.191212225537657
rclavicle -1.4069374359331773E-15 -1.4095061474802676E-15
rhumerus 17.42504688401852 13.2505094435981 -51.20342594446947
rradius 68.89442034066559
rwrist 23.93765450010448
rhand -32.98201477372873 -49.24711484670203
rfingers 7.125019999999964
rthumb -6.2482666154448605 -79.3178093635016
lclavicle 5.372036420838888E-16 4.4233831685815517E-16
lhumerus 18.00721081831393 -13.87829690383947 49.41217803606352
lradius 67.44112868637369
lwrist -18.171616591743046
lhand -44.02689260560878 -60.571438063654384
lfingers 7.1250199999999575
lthumb -16.85665827883715 -31.13733742777674
rfemur -28.69491618261635 0.1136718233013938 18.33916564966937
rtibia 43.72070595786138
rfoot -26.55526876996976 -16.894224102954837
rtoes -16.3329709639206
lfemur -24.359381053912166 3.182494713263944 -14.697754637271897
ltibia 51.66655437640468
lfoot -22.018211561592743 1.2139879435013965
ltoes -16.509830545224588
16
root 0 0 0 2.6206767461990945 -4.18522480716798 2.0548011279735876
lowerback 12.041503318166331 1.1021329111380682 -0.02062621363538597
upperback -4.177012238548993 1.4335463410169929 -0.7180265542068901
thorax -11.205251386952712 0.6559326361460642 -1.0545868778323757
lowerneck -6.9906108413657275 1.3569868508860556 4.329039204339872
upperneck 18.982528760404158 2.7998662902220737 -8.154817469477461
head 7.095526740864988 0.967479003945663 -3.1650264529167957
rclavicle -1.5086353490489813E-15 -1.2106449424469887E-15
rhumerus 17.703572261024497 13.637159810569878 -51.45421848802893
rradius 69.11763328264519
rwrist 23.661449766843724
rhand -32.98561863112879 -49.195046157642274
rfingers 7.125019999999964
rthumb -6.2525826331267425 -79.25606060369738
lclavicle 5.96455860706927E-16 6.067113771212121E-16
lhumerus 17.94410188908541 -13.843285203526756 49.43125894997575
lradius 67.38955784417179
lwrist -18.166314640482618
lhand -44.00482646751312 -60.506743542979805
lfingers 7.125019999999957
lthumb -16.835417698252346 -31.069301975969996
rfemur -26.063327925955704 0.9403711690207384 19.51071092206323
rtibia 38.83119041833556
rfoot -29.046163904486882 -16.966797582526986
rtoes -18.258986648376833
lfemur -24.927958991559592 2.4014874071094 -14.666766721605178
ltibia 45.46561779424434
lfoot -24.94020909645236 3.6594042622241982
ltoes -17.384636357571082
17
root 0 0 0 2.733705833931973 -4.327966609472922 1.9694052926768673
lowerback 11.954451128627413 1.1893758550799722 0.08163069281068241
upperback -4.191395370837115 1.5575255669058565 -0.7478782740631732
thorax -11.160055028615789 0.7143763147086601 -1.158320288958086
lowerneck -6.974627478050178 1.3193551848211265 4.298118192302306
upperneck 18.95219389974583 2.741641592937234 -8.071943056927832
head 7.083549795559593 0.9457490682231725 -3.1373227445713656
rclavicle -1.5228841160480601E-15 -1.045441826873452E-15
rhumerus 17.83103186611128 13.837087472806923 -51.61587758947054
rradius 69.21999284870904
rwrist 23.49005055586058
rhand -32.97713419494046 -49.11772269240048
rfingers 7.125019999999963
rthumb -6.244214660677017 -79.17428038715597
lclavicle 6.838376061044588E-16 7.155708444116794E-16
lhumerus 17.82019428733019 -13.721184451308561 49.43781279706765
lradius 67.27049536617379
lwrist -18.197266230388372
lhand -43.97271521113661 -60.47051198605628
lfingers 7.125019999999957
lthumb -16.805091657754797 -31.027962279139192
rfemur -24.231399853009712 1.6783880258106088 20.231083799262937
rtibia 34.548701611753515
rfoot -30.010883094491952 -16.783396209650522
rtoes -19.75363065277956
lfemur -24.54715624586519 1.647052905794062 -14.712817562459215
ltibia 40.468956114777264
lfoot -26.540511816434176 5.036804104907206
ltoes -18.35838749257469
18
root 0 0 0 2.7963311271137496 -4.414178410130733 1.9569609255053244
lowerback 11.859402116325173 1.247205037496705 0.10793005652794324
upperback -4.2028793776305085 1.632035483605466 -0.7802704562495716
thorax -11.110004834887338 0.7506406165694058 -1.2144734742740606
lowerneck -6.958593910046418 1.2786896687618852 4.267042753130861
upperneck 19.03562730837388 2.681166934779938 -8.009938678612208
head 7.1099433544343364 0.920028235226431 -3.117715357176839
rclavicle -1.365487167450046E-15 -8.860538609675905E-16
rhumerus 17.660455006729983 13.65215388094286 -51.571108134518525
rradius 69.08370369053591
rwrist 23.5552280585716
rhand -32.95095594009716 -49.0266498837139
rfingers 7.125019999999963
rthumb -6.2170288481852545 -79.08685070972028
lclavicle 8.195618206598929E-16 7.704128751782938E-16
lhumerus 17.555405650715294 -13.384083948525817 49.403761671057154
lradius 66.99081048816602
lwrist -18.326597058241546
lhand -43.91970377848037 -60.52443615334732
lfingers 7.125019999999956
lthumb -16.7553440783024 -31.07166993843933
rfemur -22.77203910949468 2.1162540327477415 20.34895136421145
rtibia 32.478898577140846
rfoot -28.778033348829055 -16.13787761256055
rtoes -20.89550355731058
lfemur -23.032968843837384 0.7756803774673696 -14.652619614293233
ltibia 36.411560823800855
lfoot -25.7207242242493 4.918822229101212
ltoes -19.418235840094603
19
root 0 0 0 2.7673451898699533 -4.416300316830057 2.01478714117534
lowerback 11.830198434015664 1.2521333434024444 0.06233492379018035
upperback -4.208691941746138 1.6304689841580144 -0.8001865734169075
thorax -11.099375474549396 0.751112887833501 -1.2082289977085263
lowerneck -6.934660757406922 1.2651273901939304 4.262622465161988
upperneck 19.157698873573548 2.6624478713224944 -8.014109736299464
head 7.147527659538037 0.9097818287211107 -3.1209082810023263
rclavicle -1.2098735821626683E-15 -8.619449970058471E-16
rhumerus 17.38499591016511 13.294815091199235 -51.37814745000678
rradius 68.86111157945001
rwrist 23.77667516678727
rhand -32.9346998488829 -49.01389008471207
rfingers 7.125019999999962
rthumb -6.19975902229138 -79.08409331640084
lclavicle 8.483126348598818E-16 6.991563517565474E-16
lhumerus 17.39519754665332 -13.129545612460946 49.34780051823202
lradius 66.80632811130408
lwrist -18.4499023218853
lhand -43.89728566702059 -60.64814211864438
lfingers 7.125019999999955
lthumb -16.73483790313179 -31.192156354317024
rfemur -22.735242803697968 1.7513908707380026 19.7420634484484
rtibia 35.24392900645546
rfoot -26.410094483541346 -15.580462174352732
rtoes -20.741633602907033
lfemur -21.927419012822842 0.585106393332008 -14.549103512359585
ltibia 36.58801712082649
lfoot -23.979286566745266 3.8169413603590705
ltoes -19.87637882309663
20
root 0 0 0 2.6759688781281143 -4.396094029011495 2.1263572426306645
lowerback 11.839176932825847 1.2380496300313246 -0.030546525232664767
upperback -4.2102938613598235 1.5986829075586853 -0.8222834871062586
thorax -11.110881137808736 0.7379936433246364 -1.174061284429253
lowerneck -6.902136469334674 1.2650253351212675 4.267834456970193
upperneck 19.29712902053532 2.6642596265178087 -8.04565684883396
head 7.1893764671289295 0.9073204240568161 -3.132907205114191
rclavicle -9.86084237365677E-16 -9.367562354522699E-16
rhumerus 17.06745837653601 12.864957954004856 -51.11898967013238
rradius 68.60531645917294
rwrist 24.067457456858378
rhand -32.92400609427556 -49.04196686084988
rfingers 7.125019999999962
rthumb -6.188348778106393 -79.12514976453812
lclavicle 8.86653533006291E-16 5.717687581456209E-16
lhumerus 17.278663151424205 -12.89335608692084 49.27346178900767
lradius 66.65495995079398
lwrist -18.58275938240093
lhand -43.890741724996325 -60.826735349859355
lfingers 7.125019999999955
lthumb -16.72950408475152 -31.369122364267763
rfemur -23.92364685663909 0.8049155459362136 18.49685218673398
rtibia 41.55210727972406
rfoot -22.764336670898693 -14.997246456696153
rtoes -19.562600222401933
lfemur -20.960491639888236 0.7948285073335623 -14.468549202716996
ltibia 39.27660081242228
lfoot -21.86878457422148 2.132783503827544
ltoes -20.11845979916936
